<svg width="200" height="50" viewBox="0 0 200 50" fill="none" xmlns="http://www.w3.org/2000/svg">
<path d="M67.3735 39.536C66.9255 39.664 66.4989 39.728 66.0935 39.728C65.6882 39.7493 65.2722 39.7707 64.8455 39.792C64.4402 39.8133 63.8749 39.824 63.1495 39.824C62.4242 39.824 61.3362 39.8027 59.8855 39.76C59.5442 39.7813 59.2029 39.792 58.8615 39.792C58.5202 39.792 58.2002 39.728 57.9015 39.6C57.2402 39.3227 56.7922 38.6827 56.5575 37.68C56.4509 37.2107 56.3335 36.88 56.2055 36.688C56.0562 36.496 55.9389 36.3147 55.8535 36.144C55.6402 35.8027 55.6615 35.2373 55.9175 34.448C56.1522 33.6587 56.4615 32.688 56.8455 31.536C57.2295 30.3627 57.6669 29.1253 58.1575 27.824C59.3095 24.7307 60.3442 22.2773 61.2615 20.464C61.6242 19.6533 61.9335 18.9493 62.1895 18.352C62.4669 17.7547 62.7122 17.2427 62.9255 16.816C63.1389 16.368 63.2455 16.1333 63.2455 16.112C63.4589 15.3013 64.2802 14.6187 65.7095 14.064C67.0962 13.488 68.3549 13.3387 69.4855 13.616C70.7442 13.936 71.2989 14.768 71.1495 16.112C70.8509 17.4347 70.4029 18.7573 69.8055 20.08C69.2295 21.4027 68.5682 22.7893 67.8215 24.24C67.0749 25.6907 66.2642 27.2267 65.3895 28.848C64.5149 30.4693 63.6509 32.2293 62.7975 34.128C62.7762 34.2133 62.8189 34.288 62.9255 34.352C63.2029 34.3307 63.5869 34.2453 64.0775 34.096C64.5895 33.9467 65.1122 33.8187 65.6455 33.712C66.2002 33.584 66.7442 33.52 67.2775 33.52C67.8109 33.52 68.2589 33.6587 68.6215 33.936C68.6002 34.32 68.6962 34.6293 68.9095 34.864C69.1229 35.0773 69.3362 35.2907 69.5495 35.504C70.0829 36.0587 70.1255 36.7947 69.6775 37.712C69.2509 38.608 68.4829 39.216 67.3735 39.536ZM84.743 16.368C83.9964 18.6933 83.303 20.7947 82.663 22.672C82.0444 24.5493 81.4684 26.2773 80.935 27.856C80.423 29.4347 79.943 30.896 79.495 32.24C79.047 33.5627 78.631 34.832 78.247 36.048C78.0337 37.456 77.3404 38.448 76.167 39.024C75.4844 39.344 74.6737 39.504 73.735 39.504C72.7964 39.504 72.0924 39.3973 71.623 39.184C71.1537 38.992 70.855 38.704 70.727 38.32C70.5777 37.936 70.5777 37.4773 70.727 36.944C70.855 36.3893 71.0897 35.6427 71.431 34.704C71.7724 33.744 72.199 32.4533 72.711 30.832C73.2444 29.2107 73.799 27.568 74.375 25.904C75.8044 21.744 76.935 18.864 77.767 17.264C78.087 16.6667 78.407 16.272 78.727 16.08C79.047 15.8667 79.3564 15.7173 79.655 15.632C79.9537 15.5253 80.231 15.408 80.487 15.28C80.743 15.152 80.967 14.832 81.159 14.32C81.3724 13.808 81.7457 13.456 82.279 13.264C82.8337 13.072 83.3457 13.0613 83.815 13.232C84.3057 13.3813 84.6684 13.7227 84.903 14.256C85.159 14.768 85.1057 15.472 84.743 16.368ZM94.093 29.808C93.517 31.472 92.9304 33.072 92.333 34.608C91.7357 36.144 91.2344 37.3067 90.829 38.096C90.445 38.9067 90.1037 39.4613 89.805 39.76C89.5064 40.0587 89.197 40.2613 88.877 40.368C88.5784 40.4747 88.269 40.5173 87.949 40.496C87.6504 40.4747 87.341 40.4533 87.021 40.432C85.229 40.1547 84.6744 38.864 85.357 36.56C85.805 34.7253 86.1677 33.232 86.445 32.08C86.7224 30.9067 86.9464 29.9467 87.117 29.2C87.309 28.432 87.469 27.8027 87.597 27.312C87.725 26.8 87.8637 26.2987 88.013 25.808C88.1624 25.3173 88.3437 24.7627 88.557 24.144C88.7917 23.5253 89.0904 22.704 89.453 21.68C88.6424 21.7867 87.917 21.7013 87.277 21.424C86.3384 21.0187 85.9544 20.144 86.125 18.8C86.2104 18.1813 86.541 17.6053 87.117 17.072C87.4157 16.7947 87.7677 16.496 88.173 16.176C89.005 15.5147 90.6584 14.8107 93.133 14.064C95.693 13.296 97.8904 12.9333 99.725 12.976C100.216 12.8907 100.717 12.9547 101.229 13.168C101.762 13.36 102.189 13.6267 102.509 13.968C102.829 14.3093 102.989 14.6827 102.989 15.088C103.01 15.4933 102.754 15.856 102.221 16.176C101.965 16.3467 101.784 16.6347 101.677 17.04C101.57 17.424 101.453 17.84 101.325 18.288C101.197 18.7147 101.005 19.1093 100.749 19.472C100.514 19.8347 100.13 20.048 99.597 20.112C99.3197 20.2613 98.925 20.368 98.413 20.432C97.9224 20.496 97.5917 20.5493 97.421 20.592C97.2717 20.6133 97.1864 20.6667 97.165 20.752C96.781 21.8827 96.3224 23.2587 95.789 24.88C95.2557 26.48 94.6904 28.1227 94.093 29.808ZM89.773 21.328C89.7304 21.328 89.709 21.3387 89.709 21.36C89.709 21.36 89.7304 21.36 89.773 21.36V21.328ZM110.156 29.808C109.58 31.472 108.993 33.072 108.396 34.608C107.798 36.144 107.297 37.3067 106.892 38.096C106.508 38.9067 106.166 39.4613 105.868 39.76C105.569 40.0587 105.26 40.2613 104.94 40.368C104.641 40.4747 104.332 40.5173 104.012 40.496C103.713 40.4747 103.404 40.4533 103.084 40.432C101.292 40.1547 100.737 38.864 101.42 36.56C101.868 34.7253 102.23 33.232 102.508 32.08C102.785 30.9067 103.009 29.9467 103.18 29.2C103.372 28.432 103.532 27.8027 103.66 27.312C103.788 26.8 103.926 26.2987 104.076 25.808C104.225 25.3173 104.406 24.7627 104.62 24.144C104.854 23.5253 105.153 22.704 105.516 21.68C104.705 21.7867 103.98 21.7013 103.34 21.424C102.401 21.0187 102.017 20.144 102.188 18.8C102.273 18.1813 102.604 17.6053 103.18 17.072C103.478 16.7947 103.83 16.496 104.236 16.176C105.068 15.5147 106.721 14.8107 109.196 14.064C111.756 13.296 113.953 12.9333 115.788 12.976C116.278 12.8907 116.78 12.9547 117.292 13.168C117.825 13.36 118.252 13.6267 118.572 13.968C118.892 14.3093 119.052 14.6827 119.052 15.088C119.073 15.4933 118.817 15.856 118.284 16.176C118.028 16.3467 117.846 16.6347 117.74 17.04C117.633 17.424 117.516 17.84 117.388 18.288C117.26 18.7147 117.068 19.1093 116.812 19.472C116.577 19.8347 116.193 20.048 115.66 20.112C115.382 20.2613 114.988 20.368 114.476 20.432C113.985 20.496 113.654 20.5493 113.484 20.592C113.334 20.6133 113.249 20.6667 113.228 20.752C112.844 21.8827 112.385 23.2587 111.852 24.88C111.318 26.48 110.753 28.1227 110.156 29.808ZM105.836 21.328C105.793 21.328 105.772 21.3387 105.772 21.36C105.772 21.36 105.793 21.36 105.836 21.36V21.328ZM126.186 39.536C125.738 39.664 125.311 39.728 124.906 39.728C124.501 39.7493 124.085 39.7707 123.658 39.792C123.253 39.8133 122.687 39.824 121.962 39.824C121.237 39.824 120.149 39.8027 118.698 39.76C118.357 39.7813 118.015 39.792 117.674 39.792C117.333 39.792 117.013 39.728 116.714 39.6C116.053 39.3227 115.605 38.6827 115.37 37.68C115.263 37.2107 115.146 36.88 115.018 36.688C114.869 36.496 114.751 36.3147 114.666 36.144C114.453 35.8027 114.474 35.2373 114.73 34.448C114.965 33.6587 115.274 32.688 115.658 31.536C116.042 30.3627 116.479 29.1253 116.97 27.824C118.122 24.7307 119.157 22.2773 120.074 20.464C120.437 19.6533 120.746 18.9493 121.002 18.352C121.279 17.7547 121.525 17.2427 121.738 16.816C121.951 16.368 122.058 16.1333 122.058 16.112C122.271 15.3013 123.093 14.6187 124.522 14.064C125.909 13.488 127.167 13.3387 128.298 13.616C129.557 13.936 130.111 14.768 129.962 16.112C129.663 17.4347 129.215 18.7573 128.618 20.08C128.042 21.4027 127.381 22.7893 126.634 24.24C125.887 25.6907 125.077 27.2267 124.202 28.848C123.327 30.4693 122.463 32.2293 121.61 34.128C121.589 34.2133 121.631 34.288 121.738 34.352C122.015 34.3307 122.399 34.2453 122.89 34.096C123.402 33.9467 123.925 33.8187 124.458 33.712C125.013 33.584 125.557 33.52 126.09 33.52C126.623 33.52 127.071 33.6587 127.434 33.936C127.413 34.32 127.509 34.6293 127.722 34.864C127.935 35.0773 128.149 35.2907 128.362 35.504C128.895 36.0587 128.938 36.7947 128.49 37.712C128.063 38.608 127.295 39.216 126.186 39.536ZM137.252 33.968C138.489 34.096 139.406 34.16 140.004 34.16C140.622 34.16 141.55 34.0747 142.788 33.904C143.172 34.032 143.396 34.192 143.46 34.384C143.524 34.576 143.545 34.7787 143.524 34.992C143.502 35.184 143.513 35.376 143.556 35.568C143.598 35.76 143.801 35.92 144.164 36.048C144.356 36.112 144.409 36.304 144.324 36.624C144.26 36.9227 144.089 37.2533 143.812 37.616C143.108 38.5333 142.276 39.1733 141.316 39.536C139.78 39.92 138.574 40.144 137.7 40.208C136.249 40.3147 134.67 40.2613 132.964 40.048C131.086 39.7067 130.18 38.928 130.244 37.712C130.244 33.232 131.225 28.7307 133.188 24.208C133.828 22.736 134.553 21.1893 135.364 19.568C135.534 19.2267 135.63 18.8427 135.652 18.416C135.694 17.9893 135.726 17.5733 135.748 17.168C135.769 16.7627 135.833 16.4 135.94 16.08C136.046 15.76 136.27 15.536 136.612 15.408C141.049 13.6373 144.558 12.9547 147.14 13.36C148.036 13.3813 148.622 13.6907 148.9 14.288C149.198 14.864 149.23 15.5147 148.996 16.24C148.782 16.9653 148.345 17.648 147.684 18.288C147.044 18.928 146.233 19.3227 145.252 19.472C143.993 19.8347 143.225 20.08 142.948 20.208C142.414 20.464 142.03 20.8053 141.796 21.232C141.497 21.7013 141.22 22.1493 140.964 22.576C140.708 23.0027 140.526 23.4613 140.42 23.952L140.292 24.656C140.697 24.848 141.188 24.912 141.764 24.848C142.361 24.7627 142.905 24.688 143.396 24.624C143.908 24.5387 144.313 24.528 144.612 24.592C144.932 24.656 144.996 24.976 144.804 25.552C144.633 26.1067 144.302 26.736 143.812 27.44C143.342 28.144 142.67 28.656 141.796 28.976C141.241 29.0827 140.857 29.168 140.644 29.232C140.452 29.2747 140.302 29.3067 140.196 29.328C140.046 29.3493 139.62 29.3813 138.916 29.424C137.913 31.1307 137.305 32.4533 137.092 33.392C137.006 33.776 137.06 33.968 137.252 33.968Z" fill="#FF6F96"/>
<path d="M152.561 15.28C152.966 14.2987 153.542 13.9467 154.289 14.224C154.502 13.7547 154.683 13.456 154.833 13.328C155.003 13.2 155.174 13.104 155.345 13.04C155.515 12.9547 155.697 12.8693 155.889 12.784C156.081 12.6987 156.379 12.624 156.785 12.56C157.19 12.496 157.638 12.464 158.129 12.464C158.619 12.4427 159.11 12.464 159.601 12.528C160.113 12.592 160.539 12.7307 160.881 12.944C161.713 13.4347 161.894 14.224 161.425 15.312C161.467 15.2907 161.457 15.312 161.393 15.376L161.105 15.92L160.881 16.208C160.774 16.3147 160.443 16.9653 159.889 18.16C159.441 19.0133 158.982 19.856 158.513 20.688C157.745 22.1173 157.275 23.0347 157.105 23.44C157.851 23.0347 158.715 22.448 159.697 21.68C161.553 20.2507 162.737 19.3973 163.249 19.12C163.761 18.8427 164.113 18.672 164.305 18.608C164.518 18.544 164.721 18.5333 164.913 18.576C165.105 18.5973 165.307 18.6507 165.521 18.736L166.321 19.056C166.833 19.2267 167.11 19.8453 167.153 20.912C167.174 21.9573 166.961 22.7467 166.513 23.28C164.571 25.7973 162.385 27.4827 159.953 28.336C159.206 28.6133 158.438 28.848 157.649 29.04C158.779 29.168 159.857 29.9147 160.881 31.28C161.713 32.3893 162.31 33.5307 162.673 34.704C163.057 35.8773 163.355 36.752 163.569 37.328C163.782 37.8827 163.867 38.3093 163.825 38.608C163.803 38.928 163.622 39.1627 163.281 39.312C162.961 39.4827 162.406 39.6427 161.617 39.792C161.254 39.856 160.507 39.4293 159.377 38.512C158.886 38.1067 158.363 37.6693 157.809 37.2C157.254 36.7093 156.699 36.2507 156.145 35.824C154.865 34.8213 153.969 34.2987 153.457 34.256C153.414 34.256 153.329 34.2347 153.201 34.192L152.625 35.632C152.326 36.336 152.017 37.0827 151.697 37.872C151.398 38.64 151.035 39.3333 150.609 39.952C149.947 40.4 149.179 40.5813 148.305 40.496C147.302 40.3893 146.641 39.984 146.321 39.28C146.107 38.6187 146.459 36.6773 147.377 33.456C147.995 31.1947 148.529 29.2107 148.977 27.504C149.425 25.7973 149.809 24.3893 150.129 23.28C150.449 22.1493 150.683 21.2747 150.833 20.656C150.982 20.016 151.131 19.3973 151.281 18.8C151.643 17.4133 152.07 16.24 152.561 15.28ZM178.868 16.368C178.121 18.6933 177.428 20.7947 176.788 22.672C176.169 24.5493 175.593 26.2773 175.06 27.856C174.548 29.4347 174.068 30.896 173.62 32.24C173.172 33.5627 172.756 34.832 172.372 36.048C172.159 37.456 171.465 38.448 170.292 39.024C169.609 39.344 168.799 39.504 167.86 39.504C166.921 39.504 166.217 39.3973 165.748 39.184C165.279 38.992 164.98 38.704 164.852 38.32C164.703 37.936 164.703 37.4773 164.852 36.944C164.98 36.3893 165.215 35.6427 165.556 34.704C165.897 33.744 166.324 32.4533 166.836 30.832C167.369 29.2107 167.924 27.568 168.5 25.904C169.929 21.744 171.06 18.864 171.892 17.264C172.212 16.6667 172.532 16.272 172.852 16.08C173.172 15.8667 173.481 15.7173 173.78 15.632C174.079 15.5253 174.356 15.408 174.612 15.28C174.868 15.152 175.092 14.832 175.284 14.32C175.497 13.808 175.871 13.456 176.404 13.264C176.959 13.072 177.471 13.0613 177.94 13.232C178.431 13.3813 178.793 13.7227 179.028 14.256C179.284 14.768 179.231 15.472 178.868 16.368ZM179.258 25.584C179.685 24.1547 180.026 23.056 180.282 22.288C180.559 21.4987 180.826 20.7947 181.082 20.176C181.338 19.5573 181.626 18.96 181.946 18.384C182.287 17.808 182.65 17.2853 183.034 16.816C183.439 16.3253 183.866 15.9413 184.314 15.664C184.762 15.3867 185.231 15.248 185.722 15.248C186.213 15.248 186.725 15.44 187.258 15.824C188.111 17.9573 188.634 19.3867 188.826 20.112C189.082 21.1787 189.317 22.6827 189.53 24.624C189.722 24.1333 189.935 23.6213 190.17 23.088C190.426 22.5333 190.671 21.9787 190.906 21.424C191.567 20.016 191.983 18.9493 192.154 18.224C192.623 16.7307 193.594 15.6107 195.066 14.864C196.346 14.224 197.541 14.0213 198.65 14.256C199.098 14.3413 199.407 14.5227 199.578 14.8C199.77 15.0773 199.77 15.3653 199.578 15.664C199.407 15.9627 199.343 16.2507 199.386 16.528C199.45 16.784 199.503 17.0933 199.546 17.456C199.61 18.4373 199.439 19.312 199.034 20.08C198.629 20.8267 198.213 21.7653 197.786 22.896C197.359 24.0053 196.922 25.1893 196.474 26.448C196.047 27.7067 195.61 28.9867 195.162 30.288C194.714 31.5893 194.277 32.7733 193.85 33.84C192.911 36.2933 192.143 37.648 191.546 37.904C190.735 38.3947 190.138 38.6827 189.754 38.768C189.263 38.8533 188.57 38.8533 187.674 38.768C187.119 38.7253 186.639 38.0107 186.234 36.624C185.999 35.8773 185.786 34.8427 185.594 33.52C185.253 31.216 185.018 29.9467 184.89 29.712C184.037 32.4853 183.429 34.2347 183.066 34.96C182.725 35.6853 182.458 36.1653 182.266 36.4C182.095 36.6347 181.882 36.944 181.626 37.328C181.349 38.096 180.687 38.6613 179.642 39.024C178.746 39.3653 177.935 39.4187 177.21 39.184C176.421 38.928 176.186 38.4373 176.506 37.712C176.741 35.152 177.658 31.1093 179.258 25.584Z" fill="#65C4BC"/>
<path d="M21.2524 18.4541C21.2524 18.4541 24.4714 19.3209 25.2524 17.9541C25.7368 17.1064 25.2524 15.4541 25.2524 15.4541" stroke="#FF6F96"/>
<path d="M16.2524 22.4541C16.2524 22.4541 16.3931 24.1919 15.7524 24.9541C14.864 26.011 12.2524 25.4541 12.2524 25.4541" stroke="#FF6F96"/>
<path d="M20.7524 23.9541C20.7524 23.9541 22.2002 24.5064 22.7524 23.9541C23.3047 23.4018 22.7524 21.9541 22.7524 21.9541" stroke="#FF6F96"/>
<path d="M11.7524 14.9542C11.7524 14.9542 9.51489 15.3649 8.75244 14.4542C8.00037 13.5559 7.68741 11.9423 8.75244 11.4542C9.48432 11.1187 10.1668 11.4018 10.7524 11.9542C11.8976 13.0344 8.3114 15.119 7.25244 13.9542C6.95874 13.6311 6.75244 12.9542 6.75244 12.9542" stroke="#FF6F96"/>
<path d="M30.2526 20.4541C30.2526 20.4541 30.8777 17.3181 29.7526 15.9541C28.9191 14.9437 26.7526 14.4541 26.7526 14.4541C26.7526 14.4541 25.0282 9.87901 22.7526 7.9541C18.9782 4.76138 14.8965 4.25898 10.2526 5.9541C5.9705 7.51714 3.87366 10.1936 2.25259 14.4541C0.441855 19.2131 0.444605 23.2065 3.25259 27.4541C5.25558 30.484 7.22974 32.07 10.7526 32.9541C13.0253 33.5244 16.7526 32.9541 16.7526 32.9541" stroke="#FF6F96"/>
<path d="M42.2526 28.454C42.2526 28.454 45.3461 32.4813 45.2526 35.454C45.1172 39.7521 42.2524 42.9541 37.7524 44.4541C33.7526 44.9542 30.3757 45.2767 26.2527 43.454C22.4558 41.7755 19.3358 40.4615 18.2527 36.454C17.7432 34.569 17.8793 33.2005 18.7526 31.454C19.6258 29.7075 20.9001 29.0715 22.7526 28.454C25.3723 27.5808 29.7526 29.454 29.7526 29.454C29.7526 29.454 26.1012 28.0002 25.7526 25.954C25.5138 24.5527 25.6051 23.2932 26.7526 22.454C27.8558 21.6471 29.0336 21.8357 30.2526 22.454C31.3676 23.0196 32.2526 24.954 32.2526 24.954" stroke="#FF6F96"/>
<path d="M47.2524 31.4543C47.2524 31.4543 49.1217 29.5231 49.2524 27.9543C49.4502 25.579 47.8993 21.9189 45.7524 22.9543C44.2497 23.6789 44.2524 26.9543 44.2524 26.9543C44.2524 26.9543 42.373 23.5735 40.2524 22.9543C38.5551 22.4586 37.1438 22.3632 35.7524 23.4543C34.2947 24.5973 34.0754 26.1103 34.2524 27.9543C34.4913 30.4434 38.2524 32.9543 38.2524 32.9543" stroke="#FF6F96"/>
</svg>
