<svg width="24" height="24" viewBox="0 0 24 24" fill="none" xmlns="http://www.w3.org/2000/svg">
<path d="M7.5 8.5L7.5 8C7.5 7.53566 7.5 7.30349 7.51926 7.10793C7.70631 5.20882 9.20882 3.70631 11.1079 3.51926C11.3035 3.5 11.5357 3.5 12 3.5V3.5C12.4643 3.5 12.6965 3.5 12.8921 3.51926C14.7912 3.7063 16.2937 5.20882 16.4807 7.10793C16.5 7.30349 16.5 7.53566 16.5 8L16.5 8.5" stroke="#313131" stroke-linecap="round"/>
<path d="M15.5 13.5V11.5" stroke="#313131" stroke-linecap="round"/>
<path d="M8.5 13.5V11.5" stroke="#313131" stroke-linecap="round"/>
<path d="M5.5 12.1C5.5 10.4029 5.5 9.55442 6.02721 9.02721C6.55442 8.5 7.40294 8.5 9.1 8.5H14.9C16.5971 8.5 17.4456 8.5 17.9728 9.02721C18.5 9.55442 18.5 10.4029 18.5 12.1V14.5C18.5 17.3284 18.5 18.7426 17.6213 19.6213C16.7426 20.5 15.3284 20.5 12.5 20.5H11.5C8.67157 20.5 7.25736 20.5 6.37868 19.6213C5.5 18.7426 5.5 17.3284 5.5 14.5V12.1Z" stroke="#313131"/>
<path d="M18.9666 8.05966C18.6484 8.05966 18.3651 8.00497 18.1165 7.8956C17.8693 7.7848 17.674 7.63281 17.5305 7.43963C17.3885 7.24503 17.3153 7.0206 17.3111 6.76634H18.2401C18.2457 6.87287 18.2805 6.96662 18.3445 7.04759C18.4098 7.12713 18.4964 7.18892 18.6044 7.23295C18.7124 7.27699 18.8338 7.29901 18.9688 7.29901C19.1094 7.29901 19.2337 7.27415 19.3416 7.22443C19.4496 7.17472 19.5341 7.10582 19.5952 7.01776C19.6563 6.92969 19.6868 6.82812 19.6868 6.71307C19.6868 6.59659 19.6541 6.49361 19.5888 6.40412C19.5249 6.31321 19.4325 6.24219 19.3118 6.19105C19.1925 6.13991 19.0504 6.11435 18.8857 6.11435H18.4787V5.43679H18.8857C19.0249 5.43679 19.1477 5.41264 19.2543 5.36435C19.3622 5.31605 19.446 5.24929 19.5057 5.16406C19.5653 5.07741 19.5952 4.97656 19.5952 4.86151C19.5952 4.75213 19.5689 4.65625 19.5163 4.57386C19.4652 4.49006 19.3928 4.42472 19.299 4.37784C19.2067 4.33097 19.0987 4.30753 18.9751 4.30753C18.8501 4.30753 18.7358 4.33026 18.6321 4.37571C18.5284 4.41974 18.4453 4.48295 18.3828 4.56534C18.3203 4.64773 18.2869 4.74432 18.2827 4.85511H17.3984C17.4027 4.60369 17.4744 4.3821 17.6136 4.19034C17.7528 3.99858 17.9403 3.84872 18.1761 3.74077C18.4134 3.63139 18.6811 3.5767 18.9794 3.5767C19.2805 3.5767 19.544 3.63139 19.7699 3.74077C19.9957 3.85014 20.1712 3.99787 20.2962 4.18395C20.4226 4.36861 20.4851 4.57599 20.4837 4.80611C20.4851 5.05043 20.4091 5.25426 20.2557 5.41761C20.1037 5.58097 19.9055 5.68466 19.6612 5.72869V5.76278C19.9822 5.80398 20.2266 5.91548 20.3942 6.0973C20.5632 6.2777 20.647 6.50355 20.6456 6.77486C20.647 7.02344 20.5753 7.24432 20.4304 7.4375C20.2869 7.63068 20.0888 7.78267 19.8359 7.89347C19.5831 8.00426 19.2933 8.05966 18.9666 8.05966Z" fill="white"/>
</svg>
