<svg width="54" height="55" viewBox="0 0 54 55" fill="none" xmlns="http://www.w3.org/2000/svg">
<g clip-path="url(#clip0_89_248)">
<path d="M27 5.11211C34.2141 5.11211 35.0684 5.14375 37.9055 5.27031C40.5422 5.38633 41.966 5.8293 42.9152 6.19844C44.1703 6.68359 45.0773 7.27422 46.016 8.21289C46.9652 9.16211 47.5453 10.0586 48.0305 11.3137C48.3996 12.2629 48.8426 13.6973 48.9586 16.3234C49.0852 19.1711 49.1168 20.0254 49.1168 27.2289C49.1168 34.443 49.0852 35.2973 48.9586 38.1344C48.8426 40.7711 48.3996 42.1949 48.0305 43.1441C47.5453 44.3992 46.9547 45.3062 46.016 46.2449C45.0668 47.1941 44.1703 47.7742 42.9152 48.2594C41.966 48.6285 40.5316 49.0715 37.9055 49.1875C35.0578 49.3141 34.2035 49.3457 27 49.3457C19.7859 49.3457 18.9316 49.3141 16.0945 49.1875C13.4578 49.0715 12.034 48.6285 11.0848 48.2594C9.82969 47.7742 8.92266 47.1836 7.98398 46.2449C7.03477 45.2957 6.45469 44.3992 5.96953 43.1441C5.60039 42.1949 5.15742 40.7605 5.04141 38.1344C4.91484 35.2867 4.8832 34.4324 4.8832 27.2289C4.8832 20.0148 4.91484 19.1605 5.04141 16.3234C5.15742 13.6867 5.60039 12.2629 5.96953 11.3137C6.45469 10.0586 7.04531 9.15156 7.98398 8.21289C8.9332 7.26367 9.82969 6.68359 11.0848 6.19844C12.034 5.8293 13.4684 5.38633 16.0945 5.27031C18.9316 5.14375 19.7859 5.11211 27 5.11211ZM27 0.25C19.6699 0.25 18.7523 0.281641 15.873 0.408203C13.0043 0.534766 11.032 0.998828 9.32344 1.66328C7.54102 2.35937 6.03281 3.27695 4.53516 4.78516C3.02695 6.28281 2.10938 7.79102 1.41328 9.56289C0.748828 11.282 0.284766 13.2437 0.158203 16.1125C0.0316406 19.0023 0 19.9199 0 27.25C0 34.5801 0.0316406 35.4977 0.158203 38.3769C0.284766 41.2457 0.748828 43.218 1.41328 44.9266C2.10938 46.709 3.02695 48.2172 4.53516 49.7148C6.03281 51.2125 7.54102 52.1406 9.31289 52.8262C11.032 53.4906 12.9938 53.9547 15.8625 54.0812C18.7418 54.2078 19.6594 54.2394 26.9895 54.2394C34.3195 54.2394 35.2371 54.2078 38.1164 54.0812C40.9852 53.9547 42.9574 53.4906 44.666 52.8262C46.4379 52.1406 47.9461 51.2125 49.4438 49.7148C50.9414 48.2172 51.8695 46.709 52.5551 44.9371C53.2195 43.218 53.6836 41.2562 53.8102 38.3875C53.9367 35.5082 53.9684 34.5906 53.9684 27.2605C53.9684 19.9305 53.9367 19.0129 53.8102 16.1336C53.6836 13.2648 53.2195 11.2926 52.5551 9.58398C51.8906 7.79101 50.9731 6.28281 49.4648 4.78516C47.9672 3.2875 46.459 2.35937 44.6871 1.67383C42.968 1.00937 41.0063 0.545312 38.1375 0.41875C35.2477 0.281641 34.3301 0.25 27 0.25Z" fill="white"/>
<path d="M27 13.3809C19.343 13.3809 13.1309 19.593 13.1309 27.25C13.1309 34.907 19.343 41.1191 27 41.1191C34.657 41.1191 40.8691 34.907 40.8691 27.25C40.8691 19.593 34.657 13.3809 27 13.3809ZM27 36.2465C22.0324 36.2465 18.0035 32.2176 18.0035 27.25C18.0035 22.2824 22.0324 18.2535 27 18.2535C31.9676 18.2535 35.9965 22.2824 35.9965 27.25C35.9965 32.2176 31.9676 36.2465 27 36.2465Z" fill="white"/>
<path d="M44.6555 12.8321C44.6555 14.6251 43.2 16.07 41.4176 16.07C39.6246 16.07 38.1797 14.6146 38.1797 12.8321C38.1797 11.0392 39.6352 9.59424 41.4176 9.59424C43.2 9.59424 44.6555 11.0497 44.6555 12.8321Z" fill="white"/>
</g>
<defs>
<clipPath id="clip0_89_248">
<rect width="54" height="54" fill="white" transform="translate(0 0.25)"/>
</clipPath>
</defs>
</svg>
